<?xml version="1.0" encoding="UTF-8" standalone="no"?>
<svg width="24px" height="24px" viewBox="0 0 48 48" version="1.1" xmlns="http://www.w3.org/2000/svg" xmlns:xlink="http://www.w3.org/1999/xlink" xmlns:sketch="http://www.bohemiancoding.com/sketch/ns">
    <title>icon48</title>
    <description>Created with Sketch (http://www.bohemiancoding.com/sketch)</description>
    <defs></defs>
    <g id="Chrome" stroke="none" stroke-width="1" fill="none" fill-rule="evenodd" sketch:type="MSPage">
        <path d="M0,24 C0,10.7664578 10.7664578,0 24,0 C37.2335422,0 48,9.76645783 48,23 C48,29.4013494 43.6758554,34.3778313 38.3253012,34.3778313 C35.7263614,34.3778313 33.984,33.4369157 31.796241,31.8453976 C31.2728675,32.6816386 30.6286265,33.4421205 29.8704578,34.1106506 C27.4791325,36.219759 24.1578795,37.172241 20.9788916,36.653494 C17.1348434,36.027759 14.7273253,32.4127229 13.9911325,30.5887229 C12.1197108,25.9500723 12.3440964,21.1113253 14.6070361,17.3129639 C16.4188916,14.2716145 19.3393735,12.2469398 22.4200482,11.8982169 C27.9516145,11.2672771 31.5770602,13.4752771 31.9708916,13.7285783 L33.2992771,14.5821687 C33.2992771,14.5821687 32.2766349,21.4062275 33.2992771,24.2573494 C34.3219194,27.1084712 35.3967229,28.5946988 38.3253012,28.5946988 C39.1158554,28.5946988 42.2169304,27.594698 42.2168675,24 C42.2166922,13.9552771 34.0447229,5.78313253 24,5.78313253 C13.9552771,5.78313253 5.78313253,13.9552771 5.78313253,24 C5.78313253,34.0447229 13.9552771,42.2168675 24,42.2168675 C27.9695422,42.2168675 31.7418795,40.9630843 34.9075663,38.5914217 L38.3751325,43.2196627 C34.2008675,46.3471807 29.2296867,48 24,48 C10.7664578,48 0,37.2335422 0,24 Z M23.3996238,17.6443373 C21.8903993,17.7889157 20.3080376,18.7963373 19.2683951,20.2733494 C18.3442685,21.5849639 17.0824803,24.3880482 19.0072883,28.4240964 C19.4351754,29.3216386 20.8575921,30.7841928 22.0264209,30.9461205 C23.7748794,31.1861205 24.4261653,30.7489157 25.7337498,29.7727229 C27.0351825,28.8023133 27.7590361,26.8620723 27.7590361,24.8674699 L27.7590361,18.0375904 C26.8588329,17.7964337 25.3120145,17.5697349 23.7658796,17.5697349 C23.2771588,17.5697349 23.9423431,17.5922892 23.3996238,17.6443373 Z" id="Imported-Layers-copy" fill="#313131" sketch:type="MSShapeGroup"></path>
    </g>
</svg>
