<?xml version="1.0" encoding="UTF-8" standalone="no"?>
<svg width="128px" height="128px" viewBox="0 0 128 128" version="1.1" xmlns="http://www.w3.org/2000/svg" xmlns:xlink="http://www.w3.org/1999/xlink" xmlns:sketch="http://www.bohemiancoding.com/sketch/ns">
    <!-- Generator: Sketch 3.0.1 (7597) - http://www.bohemiancoding.com/sketch -->
    <title>Imported Layers copy 2</title>
    <description>Created with Sketch.</description>
    <defs></defs>
    <g id="Page-1" stroke="none" stroke-width="1" fill="none" fill-rule="evenodd" sketch:type="MSPage">
        <g id="Avatars" sketch:type="MSLayerGroup" transform="translate(-160.000000, -138.000000)" fill="#313131">
            <g id="40px" sketch:type="MSShapeGroup">
                <path d="M160,202 C160,166.710554 188.710554,138 224,138 C259.289446,138 288,164.043888 288,199.333333 C288,216.403598 276.468948,229.674217 262.200803,229.674217 C255.270297,229.674217 250.624,227.165108 244.789976,222.92106 C243.394313,225.151036 241.676337,227.178988 239.654554,228.961735 C233.277687,234.586024 224.421012,237.125976 215.943711,235.742651 C205.692916,234.074024 199.272867,224.433928 197.309687,219.569928 C192.319229,207.200193 192.91759,194.296867 198.952096,184.167904 C203.783711,176.057639 211.571663,170.658506 219.786795,169.728578 C234.537639,168.046072 244.205494,173.934072 245.255711,174.609542 L248.798072,176.885783 C248.798072,176.885783 246.071026,195.083273 248.798072,202.686265 C251.525118,210.289257 254.391261,214.25253 262.200803,214.25253 C264.308948,214.25253 272.578481,211.585861 272.578313,202 C272.577846,175.214072 250.785928,153.421687 224,153.421687 C197.214072,153.421687 175.421687,175.214072 175.421687,202 C175.421687,228.785928 197.214072,250.578313 224,250.578313 C234.585446,250.578313 244.645012,247.234892 253.086843,240.910458 L262.333687,253.252434 C251.202313,261.592482 237.945831,266 224,266 C188.710554,266 160,237.289446 160,202 Z M222.398997,185.051566 C218.374398,185.437108 214.154767,188.123566 211.382387,192.062265 C208.918049,195.559904 205.553281,203.034795 210.686102,213.79759 C211.827134,216.191036 215.620246,220.091181 218.737122,220.522988 C223.399678,221.162988 225.136441,219.997108 228.623333,217.393928 C232.09382,214.806169 234.024096,209.632193 234.024096,204.313253 L234.024096,186.100241 C231.623554,185.457157 227.498705,184.852627 223.375679,184.852627 C222.072424,184.852627 223.846248,184.912771 222.398997,185.051566 Z" id="Imported-Layers-copy-2"></path>
            </g>
        </g>
    </g>
</svg>