<svg xmlns="http://www.w3.org/2000/svg" width="18" height="12" viewBox="0 0 18 12">
  <g fill="none" fill-rule="evenodd" transform="translate(0 -3)">
    <polygon points="0 0 18 0 18 18 0 18"/>
    <path fill="#4285F4" fill-rule="nonzero" d="M11.25,9 C12.9075,9 14.25,7.6575 14.25,6 C14.25,4.3425 12.9075,3 11.25,3 C9.5925,3 8.25,4.3425 8.25,6 C8.25,7.6575 9.5925,9 11.25,9 Z M4.5,7.5 L4.5,6 C4.5,5.5875 4.1625,5.25 3.75,5.25 C3.3375,5.25 3,5.5875 3,6 L3,7.5 L1.5,7.5 C1.0875,7.5 0.75,7.8375 0.75,8.25 C0.75,8.6625 1.0875,9 1.5,9 L3,9 L3,10.5 C3,10.9125 3.3375,11.25 3.75,11.25 C4.1625,11.25 4.5,10.9125 4.5,10.5 L4.5,9 L6,9 C6.4125,9 6.75,8.6625 6.75,8.25 C6.75,7.8375 6.4125,7.5 6,7.5 L4.5,7.5 Z M11.25,10.5 C9.2475,10.5 5.25,11.505 5.25,13.5 L5.25,14.25 C5.25,14.6625 5.5875,15 6,15 L16.5,15 C16.9125,15 17.25,14.6625 17.25,14.25 L17.25,13.5 C17.25,11.505 13.2525,10.5 11.25,10.5 Z"/>
  </g>
</svg>
