<svg xmlns="http://www.w3.org/2000/svg" width="17" height="17" viewBox="0 0 17 17">
  <path fill="#4285F4" d="M8.33333333,-2.13162821e-14 C3.73333333,-2.13162821e-14 -2.13162821e-14,3.73333333 -2.13162821e-14,8.33333333 C-2.13162821e-14,12.9333333 3.73333333,16.6666667 8.33333333,16.6666667 C12.9333333,16.6666667 16.6666667,12.9333333 16.6666667,8.33333333 C16.6666667,3.73333333 12.9333333,-2.13162821e-14 8.33333333,-2.13162821e-14 Z M8.33333333,2.5 C9.71666667,2.5 10.8333333,3.61666667 10.8333333,5 C10.8333333,6.38333333 9.71666667,7.5 8.33333333,7.5 C6.95,7.5 5.83333333,6.38333333 5.83333333,5 C5.83333333,3.61666667 6.95,2.5 8.33333333,2.5 Z M8.33333333,14.3333333 C6.25,14.3333333 4.40833333,13.2666667 3.33333333,11.65 C3.35833333,9.99166667 6.66666667,9.08333333 8.33333333,9.08333333 C9.99166667,9.08333333 13.3083333,9.99166667 13.3333333,11.65 C12.2583333,13.2666667 10.4166667,14.3333333 8.33333333,14.3333333 Z"/>
</svg>
